If you care to share, you should love to seed,

please Seed what you leech and make the speed Faster with your speed,

and remember to visit http:// www . Speed . cd



Poster



 
http://img444.imageshack.us/img444/448/barrymunday4.jpg


Barry.Munday.2010.DVDRip.XviD-DIVERSITY

[info] 

Video
ID: 0
Format: MPEG-4 Visual
Format profile: Advanced Simple@L5
Format settings, BVOP: Yes
Format settings, QPel: No
Format settings, GMC: No warppoints
Format settings, Matrix: Default (H.263)
Muxing mode: Packed bitstream
Codec ID: XVID
Codec ID/Hint: XviD
Duration: 1h 34mn
Bit rate: 2 054 Kbps
Width: 640 pixels
Height: 368 pixels
Display aspect ratio: 16:9
Frame rate: 29.970 fps
Color space: YUV
Chroma subsampling: 4:2:0
Bit depth: 8 bits
Scan type: Progressive
Compression mode: Lossy
Bits/(Pixel*Frame): 0.291
Stream size: 1.36 GiB (91%)
Writing library: XviD 1.2.1 (UTC 2008-12-04)

Audio
ID: 1
Format: MPEG Audio
Format version: Version 1
Format profile: Layer 3
Mode: Joint stereo
Mode extension: MS Stereo
Codec ID: 55
Codec ID/Hint: MP3
Duration: 1h 34mn
Bit rate mode: Constant
Bit rate: 192 Kbps
Channel(s): 2 channels
Sampling rate: 48.0 KHz
Compression mode: Lossy
Stream size: 130 MiB (9%)
Alignment: Aligned on interleaves
Interleave, duration: 33 ms (1.00 video frame)
Interleave, preload duration: 504 ms
Writing library: LAME3.98r
Encoding settings: -m j -V 4 -q 2 -lowpass 18.6 -b 192 

[cast]
Mae Whitman ... Candice
Patrick Wilson ... Barry Munday
Judy Greer ... Ginger Farley
Colin Hanks ... Heavy Metal Greg
Malcolm McDowell ... Mr. Farley
Chlo Sevigny ... Jennifer Farley
Missi Pyle ... Lida Griggs
Cybill Shepherd ... Mrs. Farley
Shea Whigham ... Donald
Christopher McDonald ... Dr. Preston Edwards
Emily Procter ... Deborah
Billy Dee Williams ... Lonnie Green
Jean Smart ... Carol Munday
Kyle Gass ... Jerry Sherman
Matt Winston ... Kyle Pennington 

[plot]
Barry Munday wakes up after being attacked to realize that he's missing his family jewels. To make matters worse, he learns he's facing a paternity lawsuit filed by a woman he can't remember having sex with

 [note]
Sample Provided for Video/Audio quality purposes

Greets
*THC*,MUSE,PrisM,DiGiTaLiNK,ViSiON,LEGi0N,FLAWL3SS,Rx,Hibees,xXTHORNXx,Noir
IMAGiNE,PDU,ELEKTRI4KA,KART3LDVD,CTFX,202122, StevieL,skrufern

All the people that make p2p what it is...THANKS[/b] 

[screens]  
http://noob.hu/2010/12/10/barry1.png 
http://noob.hu/2010/12/10/barry2.png 
http://noob.hu/2010/12/10/barry3.png